<svg width="178" height="92" viewBox="0 0 178 92" fill="none" xmlns="http://www.w3.org/2000/svg">
<path d="M20.5256 11.8608C20.4309 10.6771 19.987 9.75383 19.1939 9.09095C18.4127 8.42807 17.223 8.09663 15.625 8.09663C14.607 8.09663 13.7725 8.22092 13.1215 8.4695C12.4823 8.70625 12.0088 9.03177 11.701 9.44606C11.3932 9.86036 11.2334 10.3339 11.2216 10.8665C11.1979 11.3045 11.2749 11.701 11.4524 12.0562C11.6418 12.3994 11.9378 12.7131 12.3402 12.9972C12.7427 13.2695 13.2576 13.518 13.885 13.7429C14.5123 13.9678 15.2581 14.1691 16.1222 14.3466L19.1051 14.9858C21.1174 15.412 22.8397 15.9742 24.272 16.6726C25.7043 17.371 26.8762 18.1937 27.7877 19.1407C28.6991 20.0758 29.3679 21.1293 29.794 22.3012C30.232 23.4731 30.4569 24.7515 30.4688 26.1364C30.4569 28.5275 29.8592 30.5517 28.6754 32.2089C27.4917 33.866 25.799 35.1267 23.5973 35.9908C21.4074 36.8549 18.7737 37.287 15.696 37.287C12.5355 37.287 9.77748 36.8194 7.42189 35.8843C5.07814 34.9491 3.25522 33.5109 1.95314 31.5696C0.662893 29.6165 0.011851 27.1189 1.3914e-05 24.0767H9.37501C9.4342 25.1894 9.71237 26.1246 10.2095 26.8821C10.7067 27.6397 11.4051 28.2138 12.3047 28.6044C13.2162 28.9951 14.2993 29.1904 15.554 29.1904C16.6075 29.1904 17.4894 29.0602 18.1996 28.7998C18.9098 28.5393 19.4484 28.1783 19.8154 27.7167C20.1823 27.255 20.3717 26.7283 20.3835 26.1364C20.3717 25.5801 20.1882 25.0947 19.8331 24.6804C19.4898 24.2543 18.9217 23.8755 18.1286 23.5441C17.3355 23.2008 16.2642 22.8812 14.9148 22.5853L11.2926 21.804C8.07293 21.1056 5.53387 19.9397 3.67544 18.3062C1.82885 16.6608 0.911472 14.4177 0.923309 11.5767C0.911472 9.26851 1.527 7.25028 2.7699 5.52206C4.02464 3.782 5.75877 2.42665 7.97232 1.45601C10.1977 0.485365 12.7486 4.30346e-05 15.625 4.30346e-05C18.5606 4.30346e-05 21.0997 0.491284 23.2422 1.47376C25.3847 2.45625 27.036 3.84119 28.196 5.6286C29.3679 7.40416 29.9598 9.48158 29.9716 11.8608H20.5256ZM41.2541 36.8608H30.6007L42.6035 0.497202H56.0978L68.1007 36.8608H57.4473L49.4927 10.5114H49.2086L41.2541 36.8608ZM39.2655 22.5142H59.2939V29.9006H39.2655V22.5142ZM70.603 36.8608V0.497202H86.37C89.1399 0.497202 91.4659 0.870072 93.348 1.61581C95.242 2.36155 96.6683 3.41505 97.6271 4.77632C98.5978 6.13759 99.0831 7.74152 99.0831 9.58811C99.0831 10.9257 98.7872 12.1449 98.1953 13.2458C97.6153 14.3466 96.7985 15.2699 95.745 16.0157C94.6915 16.7496 93.4605 17.2586 92.0519 17.5427V17.8978C93.6144 17.957 95.0348 18.3535 96.3132 19.0874C97.5916 19.8095 98.6096 20.8097 99.3672 22.0881C100.125 23.3547 100.504 24.8462 100.504 26.5625C100.504 28.5512 99.9827 30.3208 98.9411 31.8715C97.9112 33.4222 96.4434 34.6414 94.5377 35.5292C92.6319 36.4169 90.3592 36.8608 87.7195 36.8608H70.603ZM80.4752 28.9773H85.0916C86.7488 28.9773 87.9917 28.6696 88.8203 28.054C89.6489 27.4267 90.0632 26.5034 90.0632 25.2841C90.0632 24.4319 89.8679 23.7098 89.4773 23.1179C89.0867 22.5261 88.5303 22.0763 87.8083 21.7685C87.098 21.4607 86.2398 21.3069 85.2337 21.3069H80.4752V28.9773ZM80.4752 15.1989H84.5235C85.3876 15.1989 86.1511 15.0628 86.8139 14.7905C87.4768 14.5183 87.9917 14.1276 88.3587 13.6187C88.7375 13.0978 88.9269 12.4645 88.9269 11.7188C88.9269 10.5943 88.5244 9.73608 87.7195 9.14422C86.9146 8.54053 85.8966 8.23868 84.6655 8.23868H80.4752V15.1989ZM112.874 0.497202V36.8608H103.001V0.497202H112.874ZM148.015 0.497202V36.8608H139.777L126.637 17.7557H126.424V36.8608H116.552V0.497202H124.933L137.859 19.5313H138.143V0.497202H148.015ZM151.685 36.8608V0.497202H177.892V8.45175H161.557V14.7017H176.543V22.6563H161.557V28.9063H177.821V36.8608H151.685ZM0.923309 91.8608V55.4972H10.7955V70.1989H11.2926L22.2301 55.4972H33.7358L21.4489 71.6904L34.0199 91.8608H22.2301L14.0625 78.2245L10.7955 82.4858V91.8608H0.923309ZM44.8985 91.8608L34.174 55.4972H45.1825L50.1541 77.8694H50.4382L56.3331 55.4972H64.9979L70.8928 77.9404H71.1769L76.1485 55.4972H87.157L76.4325 91.8608H66.9865L60.8075 71.5483H60.5235L54.3445 91.8608H44.8985ZM94.551 91.8608H83.8976L95.9004 55.4972H109.395L121.398 91.8608H110.744L102.79 65.5114H102.506L94.551 91.8608ZM92.5623 77.5142H112.591V84.9006H92.5623V77.5142ZM155.363 55.4972V91.8608H147.124L133.985 72.7557H133.772V91.8608H123.9V55.4972H132.281L145.207 74.5313H145.491V55.4972H155.363Z" fill="#000634"/>
</svg>
