<svg width="67" height="38" viewBox="0 0 67 38" fill="none" xmlns="http://www.w3.org/2000/svg">
<path d="M20.5256 11.8608C20.4309 10.6771 19.987 9.75383 19.1939 9.09095C18.4127 8.42807 17.223 8.09663 15.625 8.09663C14.607 8.09663 13.7725 8.22092 13.1215 8.4695C12.4823 8.70625 12.0088 9.03177 11.701 9.44606C11.3932 9.86036 11.2334 10.3339 11.2216 10.8665C11.1979 11.3045 11.2749 11.701 11.4524 12.0562C11.6418 12.3994 11.9378 12.7131 12.3402 12.9972C12.7427 13.2695 13.2576 13.518 13.885 13.7429C14.5123 13.9678 15.2581 14.1691 16.1222 14.3466L19.1051 14.9858C21.1174 15.412 22.8397 15.9742 24.272 16.6726C25.7043 17.371 26.8762 18.1937 27.7877 19.1407C28.6991 20.0758 29.3679 21.1293 29.794 22.3012C30.232 23.4731 30.4569 24.7515 30.4688 26.1364C30.4569 28.5275 29.8592 30.5517 28.6754 32.2089C27.4917 33.866 25.799 35.1267 23.5973 35.9908C21.4074 36.8549 18.7737 37.287 15.696 37.287C12.5355 37.287 9.77748 36.8194 7.42189 35.8843C5.07814 34.9491 3.25522 33.5109 1.95314 31.5696C0.662893 29.6165 0.011851 27.1189 1.3914e-05 24.0767H9.37501C9.4342 25.1894 9.71237 26.1246 10.2095 26.8821C10.7067 27.6397 11.4051 28.2138 12.3047 28.6044C13.2162 28.9951 14.2993 29.1904 15.554 29.1904C16.6075 29.1904 17.4894 29.0602 18.1996 28.7998C18.9098 28.5393 19.4484 28.1783 19.8154 27.7167C20.1823 27.255 20.3717 26.7283 20.3835 26.1364C20.3717 25.5801 20.1882 25.0947 19.8331 24.6804C19.4898 24.2543 18.9217 23.8755 18.1286 23.5441C17.3355 23.2008 16.2642 22.8812 14.9148 22.5853L11.2926 21.804C8.07293 21.1056 5.53387 19.9397 3.67544 18.3062C1.82885 16.6608 0.911472 14.4177 0.923309 11.5767C0.911472 9.26851 1.527 7.25028 2.7699 5.52206C4.02464 3.782 5.75877 2.42665 7.97232 1.45601C10.1977 0.485365 12.7486 4.30346e-05 15.625 4.30346e-05C18.5606 4.30346e-05 21.0997 0.491284 23.2422 1.47376C25.3847 2.45625 27.036 3.84119 28.196 5.6286C29.3679 7.40416 29.9598 9.48158 29.9716 11.8608H20.5256ZM33.2241 36.8608V0.497202H43.0962V15.1989H43.5934L54.5309 0.497202H66.0366L53.7497 16.6904L66.3207 36.8608H54.5309L46.3633 23.2245L43.0962 27.4858V36.8608H33.2241Z" fill="#000634"/>
</svg>
